<mxfile host="Electron" modified="2024-02-18T20:22:58.694Z" agent="Mozilla/5.0 (Windows NT 10.0; Win64; x64) AppleWebKit/537.36 (KHTML, like Gecko) draw.io/23.0.2 Chrome/120.0.6099.109 Electron/28.1.0 Safari/537.36" etag="MU4hvsAa0iA12F3xT7G8" version="23.0.2" type="device">
  <diagram name="Page-1" id="xX_9cSnZRkhhUgfLJUyS">
    <mxGraphModel dx="592" dy="351" grid="1" gridSize="10" guides="1" tooltips="1" connect="1" arrows="1" fold="1" page="1" pageScale="1" pageWidth="850" pageHeight="1100" math="0" shadow="0">
      <root>
        <mxCell id="0" />
        <mxCell id="1" parent="0" />
        <mxCell id="cTM8R3xyoqWG3S9mZjG6-14" style="edgeStyle=orthogonalEdgeStyle;rounded=0;orthogonalLoop=1;jettySize=auto;html=1;exitX=0;exitY=0.5;exitDx=0;exitDy=0;entryX=0.5;entryY=1;entryDx=0;entryDy=0;" parent="1" source="cTM8R3xyoqWG3S9mZjG6-2" target="cTM8R3xyoqWG3S9mZjG6-11" edge="1">
          <mxGeometry relative="1" as="geometry" />
        </mxCell>
        <mxCell id="cTM8R3xyoqWG3S9mZjG6-2" value="ARDUINO NANO" style="rounded=0;whiteSpace=wrap;html=1;direction=south;" parent="1" vertex="1">
          <mxGeometry x="310" y="190" width="60" height="120" as="geometry" />
        </mxCell>
        <mxCell id="cTM8R3xyoqWG3S9mZjG6-3" value="POWER SUPPLY" style="whiteSpace=wrap;html=1;aspect=fixed;" parent="1" vertex="1">
          <mxGeometry x="190" y="190" width="80" height="80" as="geometry" />
        </mxCell>
        <mxCell id="0VYuXsrSe1_Znh7ItQok-4" style="edgeStyle=orthogonalEdgeStyle;rounded=0;orthogonalLoop=1;jettySize=auto;html=1;exitX=0;exitY=0.5;exitDx=0;exitDy=0;entryX=0.25;entryY=0;entryDx=0;entryDy=0;" edge="1" parent="1" source="cTM8R3xyoqWG3S9mZjG6-6" target="cTM8R3xyoqWG3S9mZjG6-2">
          <mxGeometry relative="1" as="geometry" />
        </mxCell>
        <mxCell id="cTM8R3xyoqWG3S9mZjG6-6" value="MAX30102 MODULE" style="rounded=0;whiteSpace=wrap;html=1;" parent="1" vertex="1">
          <mxGeometry x="430" y="190" width="120" height="60" as="geometry" />
        </mxCell>
        <mxCell id="cTM8R3xyoqWG3S9mZjG6-9" value="BUZZER" style="rounded=0;whiteSpace=wrap;html=1;" parent="1" vertex="1">
          <mxGeometry x="430" y="260" width="120" height="60" as="geometry" />
        </mxCell>
        <mxCell id="cTM8R3xyoqWG3S9mZjG6-11" value="OLED" style="whiteSpace=wrap;html=1;aspect=fixed;" parent="1" vertex="1">
          <mxGeometry x="300" y="90" width="80" height="80" as="geometry" />
        </mxCell>
        <mxCell id="cTM8R3xyoqWG3S9mZjG6-12" style="edgeStyle=orthogonalEdgeStyle;rounded=0;orthogonalLoop=1;jettySize=auto;html=1;exitX=1;exitY=0.25;exitDx=0;exitDy=0;entryX=0.16;entryY=0.993;entryDx=0;entryDy=0;entryPerimeter=0;" parent="1" source="cTM8R3xyoqWG3S9mZjG6-3" target="cTM8R3xyoqWG3S9mZjG6-2" edge="1">
          <mxGeometry relative="1" as="geometry" />
        </mxCell>
        <mxCell id="cTM8R3xyoqWG3S9mZjG6-16" style="edgeStyle=orthogonalEdgeStyle;rounded=0;orthogonalLoop=1;jettySize=auto;html=1;exitX=0.75;exitY=0;exitDx=0;exitDy=0;entryX=-0.004;entryY=0.341;entryDx=0;entryDy=0;entryPerimeter=0;" parent="1" source="cTM8R3xyoqWG3S9mZjG6-2" target="cTM8R3xyoqWG3S9mZjG6-9" edge="1">
          <mxGeometry relative="1" as="geometry" />
        </mxCell>
        <mxCell id="0VYuXsrSe1_Znh7ItQok-2" value="&lt;b&gt;&lt;u&gt;&lt;font style=&quot;font-size: 18px;&quot;&gt;BLOCK DIAGRAM&lt;/font&gt;&lt;/u&gt;&lt;/b&gt;" style="text;html=1;align=center;verticalAlign=middle;resizable=0;points=[];autosize=1;strokeColor=none;fillColor=none;" vertex="1" parent="1">
          <mxGeometry x="260" y="35" width="180" height="40" as="geometry" />
        </mxCell>
        <mxCell id="0VYuXsrSe1_Znh7ItQok-7" value="" style="rounded=0;whiteSpace=wrap;html=1;fillColor=none;" vertex="1" parent="1">
          <mxGeometry x="180" y="40" width="380" height="290" as="geometry" />
        </mxCell>
      </root>
    </mxGraphModel>
  </diagram>
</mxfile>
